# xmcd
#
# Track frame offsets: 
#        150
#        12767
#        30635
#        45876
#        58600
#        78254
#        102723
#        121093
#        140768
#        155390
#        171704
#        190012
#
# Disc length: 2885 seconds
#
# Revision: 0
# Processed by: cddbd v1.5.2PL0 Copyright (c) Steve Scherf et al.
# Submitted via: ExactAudioCopy v0.95b4
#
DISCID=970b430c
DTITLE=Bob Dylan - Blues
DYEAR=2006
DGENRE=Blues
TTITLE0=She Belongs to Me
TTITLE1=Leopard-Skin Pill-Box Hat
TTITLE2=It takes a Lot to Laugh - It Takes a Train to Cry
TTITLE3=Down in the Flood
TTITLE4=Meet Me in the Morning
TTITLE5=Gotta Serve Somebody
TTITLE6=The Groom's Still Waiting at the Alter
TTITLE7=Seeing the Real You at Last
TTITLE8=Everything is Broken
TTITLE9=Dirt Road Blues
TTITLE10=High Water (for Charley Patton)
TTITLE11=Blind Willie McTell
EXTD=
EXTT0=
EXTT1=
EXTT2=
EXTT3=
EXTT4=
EXTT5=
EXTT6=
EXTT7=
EXTT8=
EXTT9=
EXTT10=
EXTT11=
PLAYORDER=
